<svg xmlns="http://www.w3.org/2000/svg" fill="none" viewBox="0 0 24 24" id="Car-Crash-Alt--Streamline-Outlined-Expansion" height="24" width="24">
  <desc>
    Car Crash Alt Streamline Icon: https://streamlinehq.com
  </desc>
  <g id="car-crash-alt">
    <path id="Union" fill="#FFFFFF" fill-rule="evenodd" d="M15 6V3h-2v3h2Zm3.2071 2.20711 2.5 -2.5 -1.4142 -1.41422 -2.5 2.5 1.4142 1.41422ZM2 5h5.48062l0.30025 0.3753L11.4806 10H13c1.1046 0 2 0.8954 2 2v5h-2c0 1.6569 -1.3431 3 -3 3 -1.65685 0 -3 -1.3431 -3 -3H2v-2h5.76389C8.31321 14.3863 9.1115 14 10 14c0.8885 0 1.6868 0.3863 2.2361 1H13v-3H2v-2h1V7H2V5Zm3 2v3h3.91938L6.51937 7H5Zm6.25 10c0 0.6904 -0.5596 1.25 -1.25 1.25 -0.69036 0 -1.25 -0.5596 -1.25 -1.25s0.55964 -1.25 1.25 -1.25c0.6904 0 1.25 0.5596 1.25 1.25ZM22 12h-3v-2h3v2Zm-2.7071 5.7071 -2.5 -2.5 1.4142 -1.4142 2.5 2.5 -1.4142 1.4142Z" clip-rule="evenodd" stroke-width="1"></path>
  </g>
</svg>