<svg xmlns="http://www.w3.org/2000/svg" fill="none" viewBox="0 0 24 24" id="Traffic-Jam--Streamline-Sharp-Material" height="24" width="24">
  <desc>
    Traffic Jam Streamline Icon: https://streamlinehq.com
  </desc>
  <path fill="#FFFFFF" d="M3.525 22H1V12.925L3.475 7H14.55L17 12.925V22h-2.525v-2H3.525v2ZM3.25 11.45h11.525L13.55 8.5H4.475L3.25 11.45ZM2.5 18.5h13V12.95H2.5V18.5Zm2.7705 -1.525c0.353 0 0.65035 -0.125 0.892 -0.375 0.24165 -0.25 0.3625 -0.54585 0.3625 -0.8875s-0.12185 -0.6375 -0.3655 -0.8875c-0.24365 -0.25 -0.5395 -0.375 -0.8875 -0.375s-0.647 0.1239 -0.897 0.37175c-0.25 0.248 -0.375 0.5491 -0.375 0.90325 0 0.33335 0.1235 0.625 0.3705 0.875 0.247165 0.25 0.547165 0.375 0.9 0.375Zm7.475 0c0.353 0 0.65035 -0.125 0.892 -0.375 0.24165 -0.25 0.3625 -0.54585 0.3625 -0.8875s-0.12185 -0.6375 -0.3655 -0.8875c-0.24365 -0.25 -0.5395 -0.375 -0.8875 -0.375s-0.647 0.1239 -0.897 0.37175c-0.25 0.248 -0.375 0.5491 -0.375 0.90325 0 0.33335 0.1235 0.625 0.3705 0.875 0.24715 0.25 0.54715 0.375 0.9 0.375ZM18.5 18.925v-8.6L16.475 5.5h-10.55l0.625 -1.5h10.925L20 10.025v8.9h-1.5Zm3 -3.075V7.25L19.5 2.5H9l0.625 -1.5H20.5l2.5 5.94V15.85h-1.5Z" stroke-width="0.5"></path>
</svg>